<svg xmlns="http://www.w3.org/2000/svg" xmlns:xlink="http://www.w3.org/1999/xlink" width="500" zoomAndPan="magnify" viewBox="0 0 375 374.999991" height="500" preserveAspectRatio="xMidYMid meet" version="1.0"><defs><g/><clipPath id="2b3f48db7d"><path d="M 237 87.367188 L 297.8125 87.367188 L 297.8125 188 L 237 188 Z M 237 87.367188 " clip-rule="nonzero"/></clipPath><clipPath id="0a89be5936"><path d="M 77.3125 127 L 276 127 L 276 208 L 77.3125 208 Z M 77.3125 127 " clip-rule="nonzero"/></clipPath><clipPath id="e3df69e60f"><path d="M 77.3125 187 L 138 187 L 138 287.617188 L 77.3125 287.617188 Z M 77.3125 187 " clip-rule="nonzero"/></clipPath><clipPath id="95421e1fbf"><path d="M 99 167 L 297.8125 167 L 297.8125 248 L 99 248 Z M 99 167 " clip-rule="nonzero"/></clipPath><clipPath id="7a875f0853"><path d="M 77.3125 187 L 138 187 L 138 287.617188 L 77.3125 287.617188 Z M 77.3125 187 " clip-rule="nonzero"/></clipPath></defs><g clip-path="url(#2b3f48db7d)"><path fill="#000000" d="M 237.65625 187.492188 L 237.65625 87.367188 L 297.773438 137.429688 Z M 237.65625 187.492188 " fill-opacity="1" fill-rule="nonzero"/></g><g clip-path="url(#0a89be5936)"><path fill="#000000" d="M 267.714844 135.429688 C 258.699219 130.421875 248.679688 127.417969 237.65625 127.417969 L 137.46875 127.417969 C 104.40625 127.417969 77.355469 154.453125 77.355469 187.492188 C 77.355469 194.5 78.355469 201.511719 81.363281 207.519531 L 98.394531 193.5 C 97.394531 191.496094 97.394531 189.496094 97.394531 187.492188 C 97.394531 165.464844 115.425781 147.441406 137.46875 147.441406 L 237.65625 147.441406 C 243.667969 147.441406 249.679688 149.445312 255.691406 151.449219 C 268.714844 158.457031 285.75 145.441406 267.714844 135.429688 Z M 267.714844 135.429688 " fill-opacity="1" fill-rule="nonzero"/></g><g clip-path="url(#e3df69e60f)"><path fill="#000000" d="M 137.46875 187.492188 L 137.46875 287.617188 L 77.355469 237.554688 Z M 137.46875 187.492188 " fill-opacity="1" fill-rule="nonzero"/></g><g clip-path="url(#95421e1fbf)"><path fill="#000000" d="M 107.410156 239.558594 C 116.429688 244.5625 126.449219 247.566406 137.46875 247.566406 L 237.65625 247.566406 C 270.71875 247.566406 297.773438 220.535156 297.773438 187.492188 C 297.773438 180.484375 296.769531 173.476562 293.765625 167.46875 L 276.730469 181.484375 C 276.730469 183.488281 277.734375 186.492188 277.734375 188.492188 C 277.734375 210.519531 259.699219 228.542969 237.65625 228.542969 L 137.46875 228.542969 C 131.457031 228.542969 125.445312 226.542969 119.433594 224.539062 C 106.410156 216.527344 89.378906 229.546875 107.410156 239.558594 Z M 107.410156 239.558594 " fill-opacity="1" fill-rule="nonzero"/></g><g clip-path="url(#7a875f0853)"><path fill="#000000" d="M 137.46875 187.492188 L 137.46875 287.617188 L 77.355469 237.554688 Z M 137.46875 187.492188 " fill-opacity="1" fill-rule="nonzero"/></g><g fill="#000000" fill-opacity="1"><g transform="translate(-2.364761, 373.775278)"><g><path d="M 2.953125 -2.71875 C 2.953125 -2.332031 2.820312 -2.035156 2.5625 -1.828125 C 2.300781 -1.617188 1.921875 -1.515625 1.421875 -1.515625 L 0.96875 -1.515625 L 0.96875 0 L 0.53125 0 L 0.53125 -3.84375 L 1.515625 -3.84375 C 2.472656 -3.84375 2.953125 -3.46875 2.953125 -2.71875 Z M 0.96875 -1.890625 L 1.375 -1.890625 C 1.769531 -1.890625 2.054688 -1.953125 2.234375 -2.078125 C 2.410156 -2.210938 2.5 -2.421875 2.5 -2.703125 C 2.5 -2.953125 2.414062 -3.140625 2.25 -3.265625 C 2.082031 -3.390625 1.820312 -3.453125 1.46875 -3.453125 L 0.96875 -3.453125 Z M 0.96875 -1.890625 "/></g></g></g><g fill="#000000" fill-opacity="1"><g transform="translate(0.86654, 373.775278)"><g><path d="M 2.234375 0 L 2.140625 -0.40625 L 2.125 -0.40625 C 1.976562 -0.226562 1.832031 -0.109375 1.6875 -0.046875 C 1.550781 0.015625 1.375 0.046875 1.15625 0.046875 C 0.875 0.046875 0.648438 -0.0234375 0.484375 -0.171875 C 0.328125 -0.316406 0.25 -0.523438 0.25 -0.796875 C 0.25 -1.378906 0.710938 -1.679688 1.640625 -1.703125 L 2.125 -1.71875 L 2.125 -1.90625 C 2.125 -2.125 2.078125 -2.285156 1.984375 -2.390625 C 1.890625 -2.503906 1.734375 -2.5625 1.515625 -2.5625 C 1.273438 -2.5625 1.003906 -2.488281 0.703125 -2.34375 L 0.5625 -2.671875 C 0.707031 -2.753906 0.863281 -2.816406 1.03125 -2.859375 C 1.195312 -2.898438 1.367188 -2.921875 1.546875 -2.921875 C 1.890625 -2.921875 2.140625 -2.84375 2.296875 -2.6875 C 2.460938 -2.539062 2.546875 -2.300781 2.546875 -1.96875 L 2.546875 0 Z M 1.25 -0.3125 C 1.519531 -0.3125 1.734375 -0.382812 1.890625 -0.53125 C 2.046875 -0.675781 2.125 -0.882812 2.125 -1.15625 L 2.125 -1.421875 L 1.6875 -1.390625 C 1.332031 -1.378906 1.078125 -1.328125 0.921875 -1.234375 C 0.773438 -1.140625 0.703125 -0.992188 0.703125 -0.796875 C 0.703125 -0.628906 0.75 -0.503906 0.84375 -0.421875 C 0.9375 -0.347656 1.070312 -0.3125 1.25 -0.3125 Z M 1.765625 -3.25 L 1.484375 -3.25 C 1.367188 -3.34375 1.234375 -3.472656 1.078125 -3.640625 C 0.921875 -3.804688 0.804688 -3.945312 0.734375 -4.0625 L 0.734375 -4.125 L 1.265625 -4.125 C 1.316406 -4 1.394531 -3.859375 1.5 -3.703125 C 1.601562 -3.546875 1.691406 -3.421875 1.765625 -3.328125 Z M 1.765625 -3.25 "/></g></g></g><g fill="#000000" fill-opacity="1"><g transform="translate(3.851497, 373.775278)"><g><path d="M 2.9375 -1.4375 C 2.9375 -0.96875 2.816406 -0.601562 2.578125 -0.34375 C 2.347656 -0.0820312 2.023438 0.046875 1.609375 0.046875 C 1.347656 0.046875 1.117188 -0.0078125 0.921875 -0.125 C 0.722656 -0.25 0.566406 -0.421875 0.453125 -0.640625 C 0.347656 -0.867188 0.296875 -1.132812 0.296875 -1.4375 C 0.296875 -1.90625 0.410156 -2.269531 0.640625 -2.53125 C 0.878906 -2.789062 1.207031 -2.921875 1.625 -2.921875 C 2.03125 -2.921875 2.347656 -2.785156 2.578125 -2.515625 C 2.816406 -2.253906 2.9375 -1.894531 2.9375 -1.4375 Z M 0.75 -1.4375 C 0.75 -1.070312 0.820312 -0.789062 0.96875 -0.59375 C 1.113281 -0.40625 1.332031 -0.3125 1.625 -0.3125 C 1.90625 -0.3125 2.117188 -0.40625 2.265625 -0.59375 C 2.421875 -0.789062 2.5 -1.070312 2.5 -1.4375 C 2.5 -1.800781 2.421875 -2.078125 2.265625 -2.265625 C 2.117188 -2.460938 1.898438 -2.5625 1.609375 -2.5625 C 1.328125 -2.5625 1.113281 -2.46875 0.96875 -2.28125 C 0.820312 -2.09375 0.75 -1.8125 0.75 -1.4375 Z M 0.75 -1.4375 "/></g></g></g></svg>